<svg xmlns="http://www.w3.org/2000/svg" width="38" height="37" viewBox="0 0 38 37">
    <path fill="#000" fill-rule="nonzero" d="M20.02 28.822l9.313 5.371-2.23-10.517a2 2 0 0 1 .617-1.9l7.986-7.197-10.691-1.129a2 2 0 0 1-1.617-1.174l-4.377-9.82-4.377 9.82a2 2 0 0 1-1.617 1.174L2.336 14.58l7.986 7.197a2 2 0 0 1 .618 1.9L8.71 34.193l9.312-5.371a2 2 0 0 1 1.998 0zM9.708 35.926a2 2 0 0 1-2.955-2.148l2.23-10.517-7.986-7.197a2 2 0 0 1 1.13-3.474l10.69-1.129 4.377-9.82a2 2 0 0 1 3.654 0l4.377 9.82 10.691 1.129a2 2 0 0 1 1.13 3.474l-7.987 7.197 2.23 10.517a2 2 0 0 1-2.955 2.148l-9.313-5.372-9.313 5.372z"/>
</svg>
